<svg width="590" height="121" viewBox="0 0 590 121" fill="none" xmlns="http://www.w3.org/2000/svg">
<path d="M13 77.3844C13 65.4465 26.2468 51.9415 36.1667 43.0175C43.2092 36.6819 53.0622 26.5077 63.2732 22.432C69.0924 20.1092 60.044 32.0184 59.1757 32.9842C49.1348 44.1528 40.0868 56.0262 33.0147 68.389C29.8879 73.855 23.0157 90.8408 24.3469 84.9958C28.01 68.9126 48.8434 52.8489 61.6973 40.3074C67.6516 34.4977 73.0946 28.1494 79.5057 22.605C83.6129 19.053 84.1137 20.5912 83.9184 24.4502C83.6978 28.8081 80.5916 32.7631 78.2449 36.6746C74.051 43.6651 70.2306 50.7105 65.5584 57.5484C59.0717 67.042 52.5346 76.6679 47.0408 86.495C46.5549 87.3643 44.729 91.4058 47.6712 88.6862C55.004 81.9082 61.7254 74.3528 68.4739 67.2357C79.4849 55.6234 88.8885 43.0319 100.939 31.9463C105.232 27.9971 108.613 25.8186 107.952 32.3499C106.851 43.2287 100.402 54.8606 94.9501 64.9293C91.1973 71.8602 85.5564 80.7509 83.9972 88.1672C83.6036 90.0393 84.9782 89.7856 86.2823 88.5132C92.7318 82.2205 97.0642 75.0906 102.357 68.2737C115.122 51.8332 128.822 35.5464 144.987 20.7598C150.902 15.3493 160.207 7.15241 156.807 19.3182C154.589 27.2526 148.704 35.022 144.278 42.3832C138.13 52.6081 132.509 63.0728 125.839 73.1173C122.218 78.5706 118.687 84.031 115.438 89.6088C114.664 90.9368 110.081 97.7375 114.807 93.5875C130.778 79.5632 145.445 65.3656 160.51 50.8596C164.106 47.3974 168.063 44.263 171.542 40.711C173.387 38.8274 175.595 35.1394 178.24 33.8492C185.964 30.0807 183.363 40.435 182.889 43.4788C181.88 49.959 143.894 103.711 154.837 107.715C161.62 110.197 171.262 95.7544 173.985 92.4343C184.531 79.5712 194.851 66.6329 207.001 54.55C214.509 47.0838 220.206 38.8899 229.222 32.2923C235.737 27.5247 232.846 41.3149 232.217 43.5941C228.359 57.5517 218.444 72.1893 211.02 85.3418C210.072 87.0205 204.381 101.213 206.844 100.565C211.57 99.3195 215.445 93.7434 218.348 91.108C226.015 84.1478 232.339 76.9537 238.836 69.4269C248.273 58.4927 259.125 48.2136 269.409 37.7125C273.191 33.851 277.767 29.43 284.223 27.7946C292.014 25.8213 291.246 30.6619 290.921 34.9447C290.044 46.4983 280.237 58.1617 275.713 69.1963C273.617 74.31 269.072 81.6821 271.222 87.187C272.254 89.8308 284.888 86.5854 286.43 85.6878C297.757 79.0944 303.315 64.9143 309.675 55.7609C317.344 44.7246 324.96 32.8861 338.279 24.9115C340.7 23.4619 346.316 18.6298 346.316 23.7005C346.316 35.6207 343.303 45.7035 337.018 56.7412C332.272 65.0765 326.459 74.396 326.459 83.6119C326.459 87.2205 326.119 91.0555 332.448 90.8774C335.875 90.7809 337.264 88.9632 338.909 86.9563C344.482 80.1592 348.912 72.908 354.748 66.1978C365.277 54.0902 378.774 43.6636 391.389 32.7536C393.548 30.8863 400.241 25.4881 403.76 25.4881C413.518 25.4881 396.847 60.2775 393.753 65.2752C391.538 68.8531 379.587 84.0962 383.352 88.9169C383.48 89.0812 391.186 78.7738 391.783 77.8457C397.39 69.1264 403.922 60.5607 410.694 52.3012C416.404 45.3373 423.117 38.7512 430.315 32.5806C433.419 29.92 436.053 26.5353 440.244 24.6808C453.635 18.7557 432.721 48.8795 430.709 51.3209C419.745 64.6282 407.077 77.0669 399.426 91.6847C399.271 91.9821 398.408 96.802 399.111 96.6436C406.277 95.0301 413.948 82.3374 417.865 78.0763C432.929 61.6904 451.386 45.1281 470.502 31.139C473.538 28.9174 477.141 25.0773 481.061 23.6429C481.998 23.3001 474.503 34.6668 473.812 35.5214C461.449 50.8142 448.545 65.9496 436.619 81.4207C434.833 83.7371 422.445 96.8673 433.782 90.7044C449.256 82.2928 464.116 73.0763 479.012 64.122C480.766 63.0676 493.215 54.024 492.329 59.8549C490.923 69.1206 482.517 76.226 477.909 84.5345C475.566 88.761 469.27 94.6691 471.211 99.6421C473.463 105.409 505.99 79.9428 507.695 78.4223C524.771 63.1964 515.5 64.122 540.5 48.5C559.5 39 566.5 38.5 577 35.5214" stroke="#F6FF8F" stroke-width="25" stroke-linecap="round"/>
</svg>
