<svg width="45" height="36" viewBox="0 0 45 36" fill="none" xmlns="http://www.w3.org/2000/svg">
<path d="M5 35C5 25.8258 11.8805 16.772 19.449 12.4179C21.2801 11.3645 23.512 10.5298 25.5626 10.0498C27.2609 9.65223 30.4215 9.41847 31.966 10.3035C35.0187 12.0526 34.2659 17.2352 32.0764 19.2123C30.551 21.2011 27.3237 20.8397 26.2094 19.8153C24.2966 18.0569 25.3659 13.3101 25.7834 11.0224C27.307 2.67565 37.1482 1 44 1" stroke="black" strokeWidth="2" strokeLinecap="round"/>
<path d="M1 32C1 32 1.44233 32.3484 1.49655 32.3868C1.76883 32.5796 1.98966 32.7929 2.24483 32.9973C2.72672 33.3834 3.18619 33.7845 3.67586 34.166C4.01207 34.4279 4.09332 34.7074 4.26832 34.8345C4.44332 34.9617 4.67152 35.0562 4.82152 34.9616C5.37473 34.6129 5.654 34.4279 6.12069 34.2157C6.91138 33.8561 7.70389 33.5465 8.45517 33.1272C8.8904 32.8843 9.47821 32.4526 10 32.3481" stroke="black" strokeWidth="2" strokeLinecap="round"/>
</svg>
