<svg width="62" height="27" viewBox="0 0 62 27" fill="none" xmlns="http://www.w3.org/2000/svg">
<path d="M18.2303 2C14.7585 6.44822 10.8051 10.4345 7.77774 15.2307C6.49049 17.27 5.22347 19.2696 3.78422 21.2036C3.13928 22.0702 2.26912 23.1686 2.03055 24.2421C1.72463 25.6188 3.79535 22.0411 4.72183 20.9779C7.40831 17.895 10.2119 14.9177 12.8304 11.7754C15.3729 8.72446 17.7837 5.43308 20.5917 2.62507C21.0156 2.2012 21.0603 2.435 20.9043 3.04179C20.3215 5.30816 19.0894 7.26068 17.9178 9.25778C15.7047 13.0302 12.8719 16.8082 11.2156 20.8737C11.0317 21.3251 10.3479 22.6616 11.3372 21.6724C13.6612 19.3484 15.7615 16.7851 18.022 14.3973C21.3551 10.8764 24.7346 7.37206 28.162 3.94467C28.4973 3.60944 29.0023 3.03754 28.3357 3.84049C26.7733 5.72242 25.3163 7.66212 23.9254 9.6745C21.7725 12.7894 19.2343 16.2646 17.7963 19.7798C16.5628 22.7949 21.9299 17.0526 22.2412 16.7413C25.1493 13.8332 28.1607 10.909 30.7318 7.6951C31.9213 6.20818 32.0883 6.35857 30.8012 7.93819C29.2034 9.89911 28.068 12.0814 26.6862 14.1542C25.0317 16.6359 29.7489 12.5426 30.2109 12.1401C32.5749 10.08 34.8375 7.85501 37.295 5.92406C41.5497 2.58108 30.1652 14.2109 27.7453 19.0506C25.4547 23.6318 35.108 11.9013 39.1355 8.73689C40.7642 7.45722 39.1193 9.52512 38.6667 10.3343C36.9095 13.4759 34.6891 16.5546 33.5446 19.9882C33.4458 20.2846 32.8973 21.6787 33.753 21.1689C35.8015 19.9485 37.5823 17.9837 39.205 16.2725C42.015 13.3092 45.0015 10.5455 47.8865 7.66038C49.9629 5.58398 47.3759 8.55608 46.81 9.24042C43.732 12.9626 41.2622 17.0272 38.4063 20.8911C37.9421 21.5191 36.9825 22.3932 36.9825 23.2525C36.9825 23.683 39.0511 21.7287 39.1702 21.6203C42.6039 18.4957 45.5463 14.7762 49.154 11.8622C50.3355 10.908 52.2426 8.52894 50.7167 11.4282C49.383 13.9622 48.2474 16.668 46.81 19.12C44.0856 23.7676 55.4878 12.7332 59.7976 9.50087" stroke="#ECD6F5" stroke-width="4" stroke-linecap="round"/>
</svg>
