<svg width="49" height="53" viewBox="0 0 49 53" fill="none" xmlns="http://www.w3.org/2000/svg">
<path d="M47.4174 16.8119C38.9539 13.2712 27.9461 16.1245 21.0084 21.4263C19.33 22.7089 17.6985 24.4458 16.4643 26.1523C15.4421 27.5655 14.0067 30.391 14.227 32.1575C14.6626 35.6487 19.7341 36.9544 22.403 35.6975C24.8265 35.0578 25.7386 31.9411 25.2236 30.5178C24.3396 28.0745 19.548 27.229 17.2763 26.7313C8.98826 24.9155 3.64434 33.3476 0.999992 39.6686" stroke="black" strokeWidth="2" strokeLinecap="round"/>
<path d="M46.1935 11.964C46.1935 11.964 46.3442 12.5065 46.3587 12.5714C46.4315 12.897 46.543 13.183 46.6331 13.4973C46.8033 14.0909 46.996 14.6696 47.1589 15.2685C47.2708 15.6797 47.4974 15.8626 47.5471 16.0731C47.5968 16.2836 47.5959 16.5306 47.4508 16.6325C46.9156 17.0082 46.6372 17.1945 46.2613 17.5431C45.6244 18.1338 45.0329 18.7454 44.3561 19.2766C43.9641 19.5844 43.339 19.9601 43.0412 20.4011" stroke="black" strokeWidth="2" strokeLinecap="round"/>
</svg>
