<svg width="125" height="57" viewBox="0 0 125 57" fill="none" xmlns="http://www.w3.org/2000/svg">
<path d="M26.9606 13.0303C22.5882 19.6283 18.1516 26.1493 13.4959 32.5523C11.2898 35.5864 9.0664 38.6112 6.93843 41.7012C6.44309 42.4205 4.85884 44.4126 5.60292 43.9553C6.47484 43.4195 7.57397 41.7779 8.1476 41.1081C10.3678 38.5157 12.5267 35.8743 14.6182 33.1766C19.261 27.1883 23.3661 20.7341 28.3646 15.0296C28.8876 14.4327 33.2203 8.95533 34.3656 9.23577C34.9704 9.38387 32.4331 17.3408 32.3377 17.6271C29.9167 24.8889 26.3465 31.5679 22.3094 38.0482C21.0168 40.1232 17.7467 44.7642 22.1878 40.9606C28.1082 35.8901 33.3664 30.1276 39.3966 25.1593C44.2897 21.1278 49.3422 17.0721 54.6246 13.5493C56.7138 12.1562 52.3631 18.0339 51.1824 20.2501C47.8274 26.5476 44.9347 33.0749 42.2316 39.6751C41.9941 40.2549 37.6318 49.4122 40.9646 46.1826C46.5874 40.7339 50.5177 33.7869 55.0208 27.4526C59.0028 21.8513 63.1826 16.0005 67.968 11.0399C68.9009 10.0729 68.5978 10.7259 68.2423 11.3394C66.5488 14.262 64.9636 17.1664 63.5466 20.2414C59.9782 27.9856 56.1438 35.4658 52.1008 42.9694C51.9271 43.2918 48.0407 50.1446 50.6934 47.3837C55.1825 42.7117 58.7023 37.1193 62.7752 32.0977C69.3628 23.9754 76.6363 16.497 84.2802 9.37075C85.313 8.40787 90.9235 2.20717 88.6677 7.31091C85.5948 14.2636 82.3146 21.1186 79.2946 28.0998C76.3267 34.9604 72.599 41.9953 70.9814 49.3441C69.7639 54.875 74.2648 47.8375 75.0616 46.6809C83.6878 34.1585 92.041 19.7645 104.209 10.2502C105.351 9.35687 105.16 10.2888 104.911 11.2499C104.276 13.7002 103.375 16.0993 102.651 18.5244C100.763 24.8555 99.063 31.2367 96.9682 37.5052C96.5987 38.6109 95.1534 43.607 96.7736 39.547C98.9054 34.2051 100.662 28.7226 102.808 23.3831C106.048 15.3181 109.769 6.37129 119.418 5.319" stroke="#F1D6FC" stroke-width="10" stroke-linecap="round"/>
</svg>
